<svg width="20" height="20" viewBox="0 0 20 20" fill="none" xmlns="http://www.w3.org/2000/svg">
<g id="three_dots_menu 1">
<g id="Group">
<g id="Group_2">
<g id="Group_3">
<path id="Vector" d="M12.6402 2.64019C12.6402 1.18575 11.4544 0 9.99999 0C8.54555 0 7.3598 1.18575 7.3598 2.64019C7.3598 4.09463 8.54555 5.28037 9.99999 5.28037C11.4544 5.28037 12.6402 4.10047 12.6402 2.64019Z" fill="#25346B"/>
</g>
<g id="Group_4">
<path id="Vector_2" d="M12.6402 10.1285C12.6402 8.67406 11.4544 7.48831 9.99999 7.48831C8.54555 7.48831 7.3598 8.67406 7.3598 10.1285C7.3598 11.5829 8.54555 12.7687 9.99999 12.7687C11.4544 12.7687 12.6402 11.5829 12.6402 10.1285Z" fill="#25346B"/>
</g>
<g id="Group_5">
<path id="Vector_3" d="M12.6402 17.3598C12.6402 15.9054 11.4544 14.7196 9.99999 14.7196C8.54555 14.7196 7.3598 15.9054 7.3598 17.3598C7.3598 18.8143 8.54555 20 9.99999 20C11.4544 20 12.6402 18.8143 12.6402 17.3598Z" fill="#25346B"/>
</g>
</g>
</g>
</g>
</svg>
